<svg width="1164" height="450" viewBox="0 0 1164 450" fill="none" xmlns="http://www.w3.org/2000/svg">
<path d="M683.1 222C695.3 224.6 705.1 230.7 712.5 240.3C719.9 249.7 723.6 260.5 723.6 272.7C723.6 290.3 717.4 304.3 705 314.7C692.8 324.9 675.7 330 653.7 330H555.6V119.4H650.4C671.8 119.4 688.5 124.3 700.5 134.1C712.7 143.9 718.8 157.2 718.8 174C718.8 186.4 715.5 196.7 708.9 204.9C702.5 213.1 693.9 218.8 683.1 222ZM606.9 204.6H640.5C648.9 204.6 655.3 202.8 659.7 199.2C664.3 195.4 666.6 189.9 666.6 182.7C666.6 175.5 664.3 170 659.7 166.2C655.3 162.4 648.9 160.5 640.5 160.5H606.9V204.6ZM644.7 288.6C653.3 288.6 659.9 286.7 664.5 282.9C669.3 278.9 671.7 273.2 671.7 265.8C671.7 258.4 669.2 252.6 664.2 248.4C659.4 244.2 652.7 242.1 644.1 242.1H606.9V288.6H644.7ZM875.454 330L804.654 237V330H753.354V119.4H804.654V211.8L874.854 119.4H935.154L853.554 222.6L938.154 330H875.454ZM1144.93 119.4V330H1093.63V243.3H1013.83V330H962.534V119.4H1013.83V201.9H1093.63V119.4H1144.93Z" fill="black"/>
<circle cx="163.5" cy="224.5" r="163.5" fill="#9333EA"/>
<circle cx="295.088" cy="224.5" r="163.5" fill="#EC4899"/>
</svg>
